<?xml version="1.0" encoding="iso-8859-1"?>
<!-- Uploaded to: SVG Repo, www.svgrepo.com, Generator: SVG Repo Mixer Tools -->
<svg height="800px" width="800px" version="1.1" id="Layer_1" xmlns="http://www.w3.org/2000/svg" xmlns:xlink="http://www.w3.org/1999/xlink" 
	 viewBox="0 0 512 512" xml:space="preserve">
<path style="fill:#F1CB30;" d="M256,0C114.842,0,0,114.842,0,256s114.842,256,256,256s256-114.842,256-256S397.158,0,256,0z"/>
<g>
	<path style="fill:#57575C;" d="M178.641,228.291c5.773-5.772,9.092-13.777,9.092-21.94c0-8.176-3.32-16.167-9.092-21.938
		s-13.777-9.092-21.938-9.092c-8.178,0-16.167,3.322-21.938,9.092c-5.787,5.772-9.092,13.762-9.092,21.938
		c0,8.163,3.305,16.168,9.092,21.94c5.772,5.77,13.76,9.09,21.938,9.09C164.864,237.382,172.87,234.062,178.641,228.291z"/>
	<path style="fill:#57575C;" d="M355.297,175.321c-8.161,0-16.167,3.305-21.938,9.092c-5.773,5.772-9.092,13.762-9.092,21.938
		c0,8.176,3.32,16.168,9.092,21.94c5.772,5.787,13.777,9.09,21.938,9.09c8.176,0,16.167-3.305,21.938-9.09
		c5.773-5.772,9.092-13.762,9.092-21.94c0-8.176-3.32-16.167-9.092-21.938C371.464,178.626,363.473,175.321,355.297,175.321z"/>
</g>
<path style="fill:#DF6246;" d="M334.991,311.718H256h-78.991c-12.853,0-23.273,10.42-23.273,23.273
	c0,12.853,10.42,23.273,23.273,23.273H256h78.991c12.853,0,23.273-10.42,23.273-23.273
	C358.263,322.138,347.843,311.718,334.991,311.718z"/>
<path style="fill:#E69629;" d="M177.009,358.263c-12.853,0-23.273-10.42-23.273-23.273c0-12.853,10.42-23.273,23.273-23.273H256V0
	C114.842,0,0,114.842,0,256s114.842,256,256,256V358.263H177.009z M125.673,206.352c0-8.176,3.305-16.167,9.092-21.938
	c5.772-5.772,13.76-9.092,21.938-9.092c8.161,0,16.167,3.322,21.938,9.092c5.773,5.772,9.092,13.762,9.092,21.938
	c0,8.163-3.32,16.168-9.092,21.94c-5.772,5.77-13.777,9.09-21.938,9.09c-8.178,0-16.167-3.32-21.938-9.09
	C128.977,222.52,125.673,214.514,125.673,206.352z"/>
<path style="fill:#DD512A;" d="M177.009,311.718c-12.853,0-23.273,10.42-23.273,23.273c0,12.853,10.42,23.273,23.273,23.273H256
	v-46.545H177.009z"/>
</svg>